<svg xmlns="http://www.w3.org/2000/svg" width="1200" height="620" viewBox="0 0 1200 620">
  <defs>
    <style>
      .title { font: 700 34px Arial, sans-serif; fill: #1f2937; }
      .th { font: 700 22px Arial, sans-serif; fill: #111827; }
      .td { font: 400 19px Arial, sans-serif; fill: #374151; }
      .good { fill: #065f46; font: 600 19px Arial, sans-serif; }
      .mid { fill: #92400e; font: 600 19px Arial, sans-serif; }
      .table-border { stroke: #d1d5db; stroke-width: 2; fill: #ffffff; }
      .head-bg { fill: #f3f4f6; }
      .row-alt { fill: #f9fafb; }
    </style>
  </defs>

  <rect x="0" y="0" width="1200" height="620" fill="#ffffff"/>
  <text x="60" y="70" class="title">&#20498;&#35745;&#26102;&#26041;&#26696;&#23545;&#27604;</text>

  <rect x="60" y="110" width="1080" height="450" class="table-border"/>
  <rect x="60" y="110" width="1080" height="70" class="head-bg"/>
  <rect x="60" y="250" width="1080" height="70" class="row-alt"/>
  <rect x="60" y="390" width="1080" height="70" class="row-alt"/>

  <line x1="280" y1="110" x2="280" y2="560" class="table-border"/>
  <line x1="520" y1="110" x2="520" y2="560" class="table-border"/>
  <line x1="780" y1="110" x2="780" y2="560" class="table-border"/>
  <line x1="60" y1="180" x2="1140" y2="180" class="table-border"/>
  <line x1="60" y1="250" x2="1140" y2="250" class="table-border"/>
  <line x1="60" y1="320" x2="1140" y2="320" class="table-border"/>
  <line x1="60" y1="390" x2="1140" y2="390" class="table-border"/>
  <line x1="60" y1="460" x2="1140" y2="460" class="table-border"/>

  <text x="90" y="155" class="th">&#32500;&#24230;</text>
  <text x="330" y="155" class="th">setInterval</text>
  <text x="570" y="155" class="th">setTimeout(loop)</text>
  <text x="835" y="155" class="th">requestAnimationFrame</text>

  <text x="90" y="225" class="td">&#23454;&#29616;&#22797;&#26434;&#24230;</text>
  <text x="330" y="225" class="td">&#20302;</text>
  <text x="570" y="225" class="td">&#20013;</text>
  <text x="835" y="225" class="td">&#20013;</text>

  <text x="90" y="295" class="td">&#35745;&#26102;&#31283;&#23450;&#24615;</text>
  <text x="330" y="295" class="mid">&#19968;&#33324;&#65288;&#26131;&#28418;&#31227;&#65289;</text>
  <text x="570" y="295" class="mid">&#36739;&#22909;&#65288;&#21487;&#33258;&#36866;&#24212;&#65289;</text>
  <text x="835" y="295" class="good">&#36739;&#22909;&#65288;&#32477;&#23545;&#26102;&#38388;&#24046;&#65289;</text>

  <text x="90" y="365" class="td">&#28210;&#26579;&#21327;&#21516;&#24615;</text>
  <text x="330" y="365" class="td">&#19968;&#33324;</text>
  <text x="570" y="365" class="td">&#19968;&#33324;</text>
  <text x="835" y="365" class="good">&#39640;&#65288;&#19982;&#37325;&#32472;&#21516;&#27493;&#65289;</text>

  <text x="90" y="435" class="td">&#24615;&#33021;&#25511;&#21046;</text>
  <text x="330" y="435" class="td">&#20013;</text>
  <text x="570" y="435" class="td">&#20013;</text>
  <text x="835" y="435" class="good">&#39640;&#65288;&#25353;&#31186;&#26356;&#26032;&#65289;</text>

  <text x="90" y="505" class="td">&#36866;&#29992;&#22330;&#26223;</text>
  <text x="330" y="505" class="td">&#24555;&#36895;&#31616;&#21333;&#20498;&#35745;&#26102;</text>
  <text x="570" y="505" class="td">&#26356;&#28789;&#27963;&#30340;&#23450;&#26102;&#20219;&#21153;</text>
  <text x="835" y="505" class="td">&#20498;&#35745;&#26102;&#19982;&#21160;&#30011;&#32852;&#21160;UI</text>
</svg>
